<svg width="528" height="557" viewBox="0 0 528 557" fill="none" xmlns="http://www.w3.org/2000/svg">
<g filter="url(#filter0_d_47_34)">
<path d="M375.861 69.4458C411.056 98.7392 441.929 129.716 467.554 167.091C493.178 204.802 514.172 248.91 521.273 297.732C528.374 346.555 521.582 399.754 501.205 447.903C481.138 495.716 441.796 488.481 399.5 507C367.5 529 320 548 267.5 548C218 548 186 545 143 522C106 490.5 45.5208 478.544 22.9835 441.506C0.137558 404.468 4.15104 348.912 4.45977 293.355C4.7685 238.135 1.37247 182.579 18.97 136.114C36.5676 89.6481 75.1588 52.2738 118.998 28.3677C162.838 4.46155 212.235 -5.63964 256.692 3.11472C301.149 12.2058 340.666 40.1524 375.861 69.4458Z" fill="url(#paint0_linear_47_34)" shape-rendering="crispEdges"/>
</g>
<defs>
<filter id="filter0_d_47_34" x="0" y="0" width="528" height="557" filterUnits="userSpaceOnUse" color-interpolation-filters="sRGB">
<feFlood flood-opacity="0" result="BackgroundImageFix"/>
<feColorMatrix in="SourceAlpha" type="matrix" values="0 0 0 0 0 0 0 0 0 0 0 0 0 0 0 0 0 0 127 0" result="hardAlpha"/>
<feOffset dy="5"/>
<feGaussianBlur stdDeviation="2"/>
<feComposite in2="hardAlpha" operator="out"/>
<feColorMatrix type="matrix" values="0 0 0 0 0 0 0 0 0 0 0 0 0 0 0 0 0 0 0.25 0"/>
<feBlend mode="normal" in2="BackgroundImageFix" result="effect1_dropShadow_47_34"/>
<feBlend mode="normal" in="SourceGraphic" in2="effect1_dropShadow_47_34" result="shape"/>
</filter>
<linearGradient id="paint0_linear_47_34" x1="264" y1="0" x2="264" y2="548" gradientUnits="userSpaceOnUse">
<stop stop-color="#007E85"/>
<stop offset="1" stop-color="#2B8500" stop-opacity="0.49"/>
</linearGradient>
</defs>
</svg>
