<svg width="18" height="16" viewBox="0 0 18 16" fill="none" xmlns="http://www.w3.org/2000/svg">
<path d="M12.0269 0.701484V0.698242H12.8709L13.1793 0.759834C13.3849 0.79982 13.5716 0.852222 13.7393 0.917056C13.907 0.981889 14.0693 1.05753 14.2262 1.14397C14.3831 1.23041 14.5254 1.31849 14.6531 1.40817C14.7797 1.49678 14.8933 1.59079 14.9939 1.6902C15.0935 1.79069 15.2488 1.81662 15.4598 1.768C15.6708 1.71937 15.898 1.65183 16.1414 1.56539C16.3849 1.47895 16.6257 1.3817 16.8637 1.27364C17.1018 1.16558 17.2468 1.09697 17.2987 1.06779C17.3496 1.03755 17.3766 1.02134 17.3799 1.01917L17.3831 1.01431L17.3993 1.0062L17.4156 0.998098L17.4318 0.989994L17.448 0.981889L17.4513 0.977027L17.4561 0.973785L17.461 0.970543L17.4643 0.965681L17.4805 0.960818L17.4967 0.957577L17.4935 0.981889L17.4886 1.0062L17.4805 1.03051L17.4724 1.05483L17.4643 1.07104L17.4561 1.08724L17.448 1.11156C17.4426 1.12776 17.4372 1.14937 17.4318 1.17639C17.4264 1.20341 17.375 1.31145 17.2776 1.50056C17.1802 1.68966 17.0585 1.88146 16.9124 2.07596C16.7663 2.27046 16.6354 2.4174 16.5196 2.51683C16.4028 2.61732 16.3254 2.68755 16.2875 2.72753C16.2497 2.76859 16.2037 2.80641 16.1496 2.84099L16.0684 2.89448L16.0522 2.90259L16.0359 2.91069L16.0327 2.91555L16.0278 2.91879L16.023 2.92204L16.0197 2.9269L16.0035 2.935L15.9873 2.94311L15.984 2.94797L15.9791 2.95121L15.9743 2.95445L15.971 2.95932L15.9678 2.96418L15.9629 2.96742L15.958 2.97066L15.9548 2.97552H16.0359L16.4904 2.87827C16.7934 2.81344 17.0828 2.7351 17.3588 2.64325L17.797 2.49738L17.8457 2.48117L17.87 2.47306L17.8863 2.46496L17.9025 2.45685L17.9187 2.44875L17.935 2.44065L17.9674 2.43578L17.9999 2.43254V2.46496L17.9918 2.4682L17.9836 2.47306L17.9804 2.47793L17.9755 2.48117L17.9707 2.48441L17.9674 2.48927L17.9642 2.49413L17.9593 2.49738L17.9544 2.50062L17.9512 2.50548L17.948 2.51034L17.9431 2.51358L17.935 2.52979L17.9268 2.546L17.922 2.54924C17.9198 2.55248 17.8511 2.64432 17.7158 2.82479C17.5806 3.00632 17.5075 3.09816 17.4967 3.10033C17.4859 3.10357 17.4708 3.11978 17.4513 3.14895C17.4329 3.1792 17.3182 3.29969 17.1072 3.5104C16.8962 3.72111 16.6895 3.90858 16.4872 4.07283C16.2838 4.23816 16.181 4.4413 16.1788 4.68227C16.1755 4.92215 16.1631 5.19339 16.1414 5.49593C16.1198 5.79849 16.0792 6.12535 16.0197 6.47654C15.9602 6.82773 15.8682 7.22483 15.7438 7.66786C15.6194 8.11088 15.4679 8.54311 15.2893 8.96453C15.1108 9.38595 14.9241 9.76414 14.7294 10.0991C14.5346 10.4341 14.3561 10.7177 14.1937 10.9501C14.0314 11.1824 13.8664 11.4012 13.6987 11.6065C13.531 11.8118 13.3189 12.0431 13.0625 12.3002C12.8049 12.5563 12.6643 12.6968 12.6405 12.7216C12.6156 12.7454 12.5096 12.834 12.3223 12.9875C12.1362 13.142 11.936 13.2965 11.7218 13.451C11.5086 13.6045 11.3128 13.7325 11.1342 13.8352C10.9557 13.9378 10.7404 14.055 10.4882 14.1869C10.2372 14.3198 9.96561 14.443 9.67346 14.5564C9.3813 14.6699 9.07292 14.7752 8.7483 14.8725C8.42368 14.9697 8.10989 15.0454 7.80691 15.0994C7.50395 15.1534 7.16039 15.1994 6.77625 15.2372L6.20006 15.2939V15.302H5.14505V15.2939L5.00709 15.2858C4.91513 15.2804 4.83938 15.275 4.77986 15.2696C4.72036 15.2642 4.49582 15.2345 4.10628 15.1805C3.71674 15.1264 3.41106 15.0724 3.18924 15.0184C2.96743 14.9643 2.63739 14.8617 2.19916 14.7104C1.76092 14.5591 1.38599 14.4062 1.07436 14.2517C0.763815 14.0983 0.569045 14.001 0.490049 13.96C0.412141 13.92 0.324495 13.8703 0.22711 13.8108L0.0810321 13.7217L0.0778022 13.7168L0.0729167 13.7136L0.0680474 13.7104L0.0648013 13.7055L0.0485704 13.6974L0.0323396 13.6893L0.0291097 13.6844L0.0242242 13.6812L0.0193549 13.6779L0.0161088 13.6731L0.0128788 13.6682L0.00799335 13.665H-0.00012207V13.6326L0.0161088 13.6358L0.0323396 13.6407L0.105378 13.6488C0.154071 13.6542 0.286628 13.6623 0.503034 13.6731C0.719456 13.6839 0.949382 13.6839 1.19284 13.6731C1.43631 13.6623 1.68519 13.6379 1.93946 13.6001C2.19375 13.5623 2.49402 13.4975 2.84027 13.4056C3.18654 13.3138 3.50467 13.2046 3.79466 13.0782C4.08357 12.9507 4.28915 12.8556 4.41144 12.793C4.53262 12.7314 4.71765 12.6168 4.96651 12.4493L5.33982 12.1981L5.34307 12.1932L5.34794 12.19L5.35282 12.1868L5.35605 12.1819L5.3593 12.177L5.36417 12.1738L5.36906 12.1706L5.37229 12.1657L5.38852 12.1608L5.40475 12.1576L5.40799 12.1414L5.41286 12.1252L5.41775 12.1219L5.42098 12.1171L5.29113 12.109C5.20457 12.1036 5.12071 12.0982 5.03955 12.0928C4.9584 12.0874 4.83126 12.063 4.65813 12.0198C4.48501 11.9766 4.29836 11.9118 4.09816 11.8253C3.89799 11.7389 3.70322 11.6362 3.51385 11.5174C3.32451 11.3985 3.18761 11.2996 3.10321 11.2207C3.0199 11.1429 2.91169 11.0327 2.7786 10.8901C2.64659 10.7464 2.53189 10.5989 2.4345 10.4476C2.33712 10.2963 2.24407 10.1218 2.15535 9.92407L2.02062 9.62908L2.0125 9.60476L2.00439 9.58045L1.99952 9.56424L1.99627 9.54803L2.02062 9.55128L2.04496 9.55614L2.2235 9.58045C2.34254 9.59666 2.52919 9.60206 2.78347 9.59666C3.03776 9.59126 3.21358 9.58045 3.31097 9.56424C3.40835 9.54803 3.46787 9.53722 3.48951 9.53183L3.52197 9.52372L3.56255 9.51562L3.60312 9.50751L3.60637 9.50265L3.61124 9.49941L3.61612 9.49617L3.61935 9.4913L3.58689 9.4832L3.55443 9.4751L3.52197 9.46699L3.48951 9.45889L3.45705 9.45078C3.43541 9.44538 3.39754 9.43457 3.34343 9.41837C3.28933 9.40216 3.14326 9.34272 2.9052 9.24007C2.66716 9.13743 2.47779 9.03747 2.33712 8.94022C2.1961 8.84269 2.06163 8.73602 1.93459 8.62091C1.80799 8.50421 1.66896 8.35401 1.51746 8.17032C1.36598 7.98663 1.23073 7.77321 1.11169 7.53009C0.99267 7.28696 0.9034 7.05465 0.843882 6.83312C0.784602 6.61291 0.745493 6.38776 0.727036 6.16048L0.697804 5.8201L0.714035 5.82334L0.730266 5.8282L0.746496 5.83631L0.762727 5.84441L0.778958 5.85252L0.795189 5.86062L1.04677 5.97408C1.2145 6.04972 1.42279 6.11456 1.67165 6.16858C1.92054 6.2226 2.06931 6.25233 2.118 6.25773L2.19104 6.26583H2.33712L2.33389 6.26097L2.329 6.25773L2.32413 6.25448L2.32089 6.24962L2.31766 6.24476L2.31277 6.24152L2.3079 6.23828L2.30466 6.23341L2.28843 6.22531L2.2722 6.21721L2.26897 6.21234L2.26408 6.2091L2.25921 6.20586L2.25596 6.201L2.23973 6.19289L2.2235 6.18479L2.22027 6.17993C2.21703 6.17775 2.17049 6.14318 2.08067 6.07619C1.99194 6.00812 1.89889 5.92006 1.8015 5.812C1.70412 5.70393 1.60673 5.59047 1.50935 5.47162C1.41178 5.35249 1.32488 5.22503 1.24965 5.09072C1.17392 4.95566 1.09384 4.78383 1.00944 4.57529C0.926123 4.36783 0.862823 4.15874 0.819535 3.94803C0.776264 3.73732 0.751918 3.52932 0.746496 3.324C0.741092 3.11869 0.746496 2.94311 0.762727 2.79723C0.778958 2.65136 0.81142 2.48656 0.860112 2.30287C0.908805 2.11918 0.979149 1.92468 1.07111 1.71937L1.20908 1.41141L1.21719 1.3871L1.22531 1.36279L1.23019 1.35955L1.23342 1.35468L1.23667 1.34982L1.24154 1.34658L1.24642 1.34982L1.24965 1.35468L1.2529 1.35955L1.25777 1.36279L1.26265 1.36603L1.26588 1.37089L1.26913 1.37575L1.274 1.379L1.28211 1.3952L1.29023 1.41141L1.29512 1.41465L1.29834 1.41952L1.51746 1.66264C1.66354 1.82473 1.83667 2.00573 2.03685 2.20562C2.23704 2.40552 2.34794 2.50926 2.36958 2.51683C2.39123 2.52546 2.41827 2.55031 2.45073 2.59138C2.4832 2.63137 2.59141 2.727 2.77535 2.87827C2.95931 3.02955 3.20006 3.20515 3.49762 3.40505C3.7952 3.60494 4.12522 3.80215 4.4877 3.99665C4.8502 4.19115 5.23974 4.36674 5.65633 4.52343C6.07292 4.68011 6.36508 4.78276 6.53279 4.83139C6.70052 4.88001 6.98725 4.94214 7.39302 5.01778C7.7988 5.09343 8.10449 5.14205 8.31007 5.16366C8.51566 5.18526 8.65634 5.1977 8.73207 5.20094L8.84569 5.20418L8.84245 5.17987L8.83757 5.15555L8.80511 4.95295C8.78347 4.81788 8.77265 4.62878 8.77265 4.38566C8.77265 4.14253 8.79159 3.91832 8.82945 3.71301C8.86734 3.50769 8.92414 3.29969 8.99988 3.08898C9.07563 2.87827 9.14975 2.70915 9.22224 2.58166C9.29583 2.45523 9.39213 2.31098 9.51115 2.14889C9.63019 1.98681 9.78438 1.81933 9.97373 1.64643C10.1631 1.47354 10.3795 1.31956 10.623 1.18449C10.8664 1.04943 11.091 0.946766 11.2965 0.876535C11.5021 0.806304 11.6753 0.760369 11.8159 0.738763C11.9566 0.717157 12.0269 0.704726 12.0269 0.701484Z" fill="#6CCAFF"/>
</svg>
